<svg xmlns="http://www.w3.org/2000/svg" xmlns:xlink="http://www.w3.org/1999/xlink" width="1500" zoomAndPan="magnify" viewBox="0 0 1125 374.999991" height="500" preserveAspectRatio="xMidYMid meet" version="1.0"><defs><g/></defs><rect x="-112.5" width="1350" fill="#ffffff" y="-37.499999" height="449.999989" fill-opacity="1"/><rect x="-112.5" width="1350" fill="#ffffff" y="-37.499999" height="449.999989" fill-opacity="1"/><rect x="-112.5" width="1350" fill="#000000" y="-37.499999" height="449.999989" fill-opacity="1"/><g fill="#ffffff" fill-opacity="1"><g transform="translate(212.196446, 238.82914)"><g><path d="M 8.796875 -101.78125 C 8.554688 -103.65625 8.289062 -105.46875 8 -107.21875 C 7.707031 -108.976562 7.503906 -110.738281 7.390625 -112.5 C 7.148438 -114.613281 7.117188 -116.84375 7.296875 -119.1875 C 7.472656 -121.53125 7.941406 -123.753906 8.703125 -125.859375 C 9.460938 -127.972656 10.546875 -129.847656 11.953125 -131.484375 C 13.359375 -133.128906 15.289062 -134.300781 17.75 -135 C 21.5 -136.050781 25.304688 -135.90625 29.171875 -134.5625 C 33.046875 -133.21875 36.679688 -131.722656 40.078125 -130.078125 C 43.359375 -128.441406 46.582031 -126.6875 49.75 -124.8125 C 52.914062 -122.9375 56.195312 -121.175781 59.59375 -119.53125 C 61.351562 -118.707031 63.109375 -117.828125 64.859375 -116.890625 C 66.617188 -115.953125 68.171875 -114.867188 69.515625 -113.640625 C 70.867188 -112.410156 71.984375 -110.945312 72.859375 -109.25 C 73.742188 -107.550781 74.242188 -105.585938 74.359375 -103.359375 C 74.472656 -101.015625 74.085938 -98.726562 73.203125 -96.5 C 72.328125 -94.28125 71.421875 -92.113281 70.484375 -90 C 65.210938 -78.28125 58.476562 -67.320312 50.28125 -57.125 C 47.226562 -53.375 43.796875 -49.890625 39.984375 -46.671875 C 36.179688 -43.453125 31.878906 -41.375 27.078125 -40.4375 C 28.128906 -33.75 29.328125 -27.179688 30.671875 -20.734375 C 32.023438 -14.296875 33.578125 -7.796875 35.328125 -1.234375 C 35.921875 0.992188 35.660156 2.835938 34.546875 4.296875 C 33.429688 5.765625 32.050781 6.734375 30.40625 7.203125 C 28.769531 7.671875 27.070312 7.550781 25.3125 6.84375 C 23.550781 6.144531 22.378906 4.6875 21.796875 2.46875 C 18.046875 -11.832031 15.175781 -26.160156 13.1875 -40.515625 C 11.195312 -54.867188 9.90625 -69.488281 9.3125 -84.375 C 9.195312 -86.363281 9.140625 -88.296875 9.140625 -90.171875 C 9.140625 -92.046875 9.082031 -93.984375 8.96875 -95.984375 C 8.96875 -96.796875 8.96875 -97.582031 8.96875 -98.34375 C 8.96875 -99.113281 8.910156 -99.847656 8.796875 -100.546875 Z M 21.265625 -118.828125 C 21.148438 -116.253906 21.269531 -113.5 21.625 -110.5625 C 21.738281 -109.28125 21.820312 -108.460938 21.875 -108.109375 C 21.9375 -107.753906 21.96875 -107.460938 21.96875 -107.234375 L 22.5 -104.0625 C 22.851562 -100.550781 23.03125 -96.976562 23.03125 -93.34375 C 23.257812 -88.1875 23.460938 -83.054688 23.640625 -77.953125 C 23.816406 -72.859375 24.140625 -67.734375 24.609375 -62.578125 C 24.722656 -61.171875 24.8125 -59.765625 24.875 -58.359375 C 24.9375 -56.953125 25.082031 -55.601562 25.3125 -54.3125 C 26.488281 -54.664062 27.3125 -54.988281 27.78125 -55.28125 C 28.25 -55.570312 28.71875 -55.835938 29.1875 -56.078125 C 29.882812 -56.546875 30.410156 -56.957031 30.765625 -57.3125 C 33.691406 -59.65625 36.148438 -62 38.140625 -64.34375 C 40.140625 -66.6875 42.015625 -69.085938 43.765625 -71.546875 C 47.640625 -76.929688 51.097656 -82.5 54.140625 -88.25 C 54.722656 -89.53125 55.304688 -90.726562 55.890625 -91.84375 C 56.484375 -92.957031 57.070312 -94.160156 57.65625 -95.453125 C 57.894531 -96.035156 58.128906 -96.5625 58.359375 -97.03125 C 58.597656 -97.5 58.832031 -98.023438 59.0625 -98.609375 C 59.644531 -100.015625 60.054688 -101.1875 60.296875 -102.125 C 60.296875 -102.945312 60.117188 -103.535156 59.765625 -103.890625 C 58.128906 -104.828125 56.898438 -105.472656 56.078125 -105.828125 C 52.679688 -107.460938 49.398438 -109.128906 46.234375 -110.828125 C 43.066406 -112.523438 39.785156 -114.3125 36.390625 -116.1875 C 34.742188 -117.125 33.070312 -118.003906 31.375 -118.828125 C 29.675781 -119.648438 27.890625 -120.351562 26.015625 -120.9375 C 25.660156 -121.050781 25.28125 -121.164062 24.875 -121.28125 C 24.46875 -121.40625 24.085938 -121.46875 23.734375 -121.46875 C 22.910156 -121.582031 22.441406 -121.609375 22.328125 -121.546875 C 22.210938 -121.492188 22.09375 -121.46875 21.96875 -121.46875 C 21.738281 -121.113281 21.59375 -120.757812 21.53125 -120.40625 C 21.476562 -120.0625 21.390625 -119.769531 21.265625 -119.53125 Z M 21.265625 -118.828125 "/></g></g><g transform="translate(283.915191, 238.82914)"><g><path d="M 10.375 -71.546875 C 10.488281 -73.773438 11.304688 -75.441406 12.828125 -76.546875 C 14.359375 -77.660156 16 -78.21875 17.75 -78.21875 C 19.507812 -78.21875 21.0625 -77.660156 22.40625 -76.546875 C 23.757812 -75.441406 24.378906 -73.773438 24.265625 -71.546875 C 24.265625 -70.835938 24.234375 -70.101562 24.171875 -69.34375 C 24.109375 -68.582031 24.078125 -67.851562 24.078125 -67.15625 C 27.828125 -69.03125 31.78125 -70.640625 35.9375 -71.984375 C 40.101562 -73.328125 44.265625 -74.175781 48.421875 -74.53125 C 52.585938 -74.882812 56.632812 -74.5625 60.5625 -73.5625 C 64.488281 -72.570312 68.09375 -70.671875 71.375 -67.859375 C 73.007812 -66.328125 73.738281 -64.679688 73.5625 -62.921875 C 73.382812 -61.171875 72.679688 -59.679688 71.453125 -58.453125 C 70.222656 -57.222656 68.671875 -56.457031 66.796875 -56.15625 C 64.921875 -55.863281 63.101562 -56.421875 61.34375 -57.828125 C 60.0625 -58.890625 58.628906 -59.65625 57.046875 -60.125 C 55.460938 -60.59375 53.757812 -60.796875 51.9375 -60.734375 C 50.125 -60.671875 48.304688 -60.460938 46.484375 -60.109375 C 44.671875 -59.765625 42.945312 -59.359375 41.3125 -58.890625 C 35.101562 -56.898438 29.300781 -54.265625 23.90625 -50.984375 C 24.144531 -45.234375 24.5 -39.488281 24.96875 -33.75 C 25.4375 -28.945312 25.84375 -23.992188 26.1875 -18.890625 C 26.539062 -13.796875 27.539062 -8.960938 29.1875 -4.390625 C 29.882812 -2.285156 29.734375 -0.5 28.734375 0.96875 C 27.742188 2.4375 26.398438 3.40625 24.703125 3.875 C 23.003906 4.34375 21.242188 4.222656 19.421875 3.515625 C 17.609375 2.816406 16.347656 1.410156 15.640625 -0.703125 C 14.703125 -3.398438 14.054688 -6.15625 13.703125 -8.96875 C 13.359375 -11.78125 13.007812 -14.59375 12.65625 -17.40625 C 12.425781 -20.101562 12.160156 -22.828125 11.859375 -25.578125 C 11.566406 -28.328125 11.304688 -31.050781 11.078125 -33.75 C 10.492188 -40.082031 10.113281 -46.378906 9.9375 -52.640625 C 9.757812 -58.910156 9.90625 -65.210938 10.375 -71.546875 Z M 10.375 -71.546875 "/></g></g><g transform="translate(357.567531, 238.82914)"><g><path d="M 8.265625 -1.765625 C 9.203125 -7.390625 10.285156 -12.925781 11.515625 -18.375 C 12.742188 -23.820312 13.648438 -29.359375 14.234375 -34.984375 C 14.703125 -40.492188 14.789062 -45.910156 14.5 -51.234375 C 14.207031 -56.566406 14.53125 -61.988281 15.46875 -67.5 C 15.707031 -69.375 16.789062 -70.78125 18.71875 -71.71875 C 20.65625 -72.65625 22.441406 -72.890625 24.078125 -72.421875 C 26.078125 -71.835938 27.457031 -70.722656 28.21875 -69.078125 C 28.976562 -67.441406 29.238281 -65.6875 29 -63.8125 C 28.53125 -61.113281 28.328125 -58.359375 28.390625 -55.546875 C 28.453125 -52.734375 28.539062 -49.921875 28.65625 -47.109375 C 28.65625 -41.722656 28.300781 -36.332031 27.59375 -30.9375 C 26.894531 -25.3125 25.988281 -19.800781 24.875 -14.40625 C 23.757812 -9.019531 22.734375 -3.570312 21.796875 1.9375 C 21.441406 3.8125 20.328125 5.21875 18.453125 6.15625 C 16.578125 7.09375 14.820312 7.328125 13.1875 6.859375 C 11.195312 6.273438 9.789062 5.160156 8.96875 3.515625 C 8.144531 1.878906 7.910156 0.117188 8.265625 -1.765625 Z M 16.703125 -82.625 C 15.878906 -82.851562 15.054688 -83.226562 14.234375 -83.75 C 13.421875 -84.28125 12.835938 -84.957031 12.484375 -85.78125 C 12.128906 -86.71875 11.832031 -87.535156 11.59375 -88.234375 C 11.363281 -88.941406 11.25 -89.765625 11.25 -90.703125 C 11.25 -91.753906 11.425781 -92.8125 11.78125 -93.875 C 12.25 -95.976562 13.1875 -97.5 14.59375 -98.4375 C 15.0625 -99.144531 15.707031 -99.671875 16.53125 -100.015625 C 17.8125 -100.835938 19.269531 -101.273438 20.90625 -101.328125 C 22.550781 -101.390625 24.019531 -100.953125 25.3125 -100.015625 C 25.894531 -99.546875 26.476562 -99.046875 27.0625 -98.515625 C 27.65625 -97.992188 28.128906 -97.320312 28.484375 -96.5 C 28.710938 -95.914062 28.972656 -95.269531 29.265625 -94.5625 C 29.554688 -93.863281 29.644531 -93.164062 29.53125 -92.46875 C 29.414062 -91.644531 29.296875 -90.878906 29.171875 -90.171875 C 29.054688 -89.472656 28.765625 -88.832031 28.296875 -88.25 C 27.710938 -87.425781 27.242188 -86.835938 26.890625 -86.484375 C 26.546875 -86.128906 25.960938 -85.660156 25.140625 -85.078125 C 24.671875 -84.609375 23.96875 -84.257812 23.03125 -84.03125 C 20.570312 -82.625 18.460938 -82.15625 16.703125 -82.625 Z M 16.703125 -82.625 "/></g></g><g transform="translate(397.997216, 238.82914)"><g><path d="M 19.515625 -25.484375 C 18.578125 -28.535156 17.726562 -31.640625 16.96875 -34.796875 C 16.207031 -37.960938 15.359375 -41.070312 14.421875 -44.125 C 13.128906 -49.164062 11.191406 -54.203125 8.609375 -59.234375 C 7.328125 -61.816406 6.039062 -64.425781 4.75 -67.0625 C 3.457031 -69.695312 2.519531 -72.421875 1.9375 -75.234375 C 1.46875 -77.460938 1.847656 -79.304688 3.078125 -80.765625 C 4.304688 -82.234375 5.738281 -83.203125 7.375 -83.671875 C 9.019531 -84.140625 10.660156 -84.019531 12.296875 -83.3125 C 13.941406 -82.613281 15 -81.148438 15.46875 -78.921875 C 16.050781 -76.109375 17.015625 -73.472656 18.359375 -71.015625 C 19.710938 -68.554688 21.035156 -66.035156 22.328125 -63.453125 C 23.617188 -60.765625 24.734375 -58.015625 25.671875 -55.203125 C 26.609375 -52.390625 27.484375 -49.578125 28.296875 -46.765625 C 29.234375 -43.710938 30.082031 -40.570312 30.84375 -37.34375 C 31.613281 -34.125 32.523438 -30.992188 33.578125 -27.953125 C 33.929688 -26.773438 34.3125 -25.628906 34.71875 -24.515625 C 35.125 -23.410156 35.5625 -22.269531 36.03125 -21.09375 C 37.207031 -24.488281 38.144531 -27.445312 38.84375 -29.96875 C 39.550781 -32.488281 40.375 -34.921875 41.3125 -37.265625 C 42.601562 -40.785156 43.832031 -44.269531 45 -47.71875 C 46.175781 -51.175781 47.234375 -54.722656 48.171875 -58.359375 C 49.109375 -61.753906 49.8125 -65.179688 50.28125 -68.640625 C 50.75 -72.097656 51.453125 -75.523438 52.390625 -78.921875 C 52.972656 -81.035156 54.140625 -82.441406 55.890625 -83.140625 C 57.648438 -83.847656 59.347656 -83.96875 60.984375 -83.5 C 62.628906 -83.03125 64.007812 -82.0625 65.125 -80.59375 C 66.238281 -79.132812 66.503906 -77.347656 65.921875 -75.234375 C 64.742188 -71.367188 63.921875 -67.472656 63.453125 -63.546875 C 62.984375 -59.617188 62.164062 -55.78125 61 -52.03125 C 59.945312 -48.28125 58.742188 -44.554688 57.390625 -40.859375 C 56.046875 -37.171875 54.726562 -33.453125 53.4375 -29.703125 C 52.613281 -27.128906 51.789062 -24.460938 50.96875 -21.703125 C 50.15625 -18.953125 49.191406 -16.285156 48.078125 -13.703125 C 46.960938 -11.128906 45.582031 -8.726562 43.9375 -6.5 C 42.300781 -4.28125 40.253906 -2.40625 37.796875 -0.875 C 35.566406 0.414062 33.515625 0.535156 31.640625 -0.515625 C 29.765625 -1.578125 28.359375 -3.101562 27.421875 -5.09375 C 26.015625 -8.5 24.632812 -11.898438 23.28125 -15.296875 C 21.9375 -18.691406 20.679688 -22.085938 19.515625 -25.484375 Z M 19.515625 -25.484375 "/></g></g><g transform="translate(467.782368, 238.82914)"><g><path d="M 8.265625 -1.765625 C 9.203125 -7.390625 10.285156 -12.925781 11.515625 -18.375 C 12.742188 -23.820312 13.648438 -29.359375 14.234375 -34.984375 C 14.703125 -40.492188 14.789062 -45.910156 14.5 -51.234375 C 14.207031 -56.566406 14.53125 -61.988281 15.46875 -67.5 C 15.707031 -69.375 16.789062 -70.78125 18.71875 -71.71875 C 20.65625 -72.65625 22.441406 -72.890625 24.078125 -72.421875 C 26.078125 -71.835938 27.457031 -70.722656 28.21875 -69.078125 C 28.976562 -67.441406 29.238281 -65.6875 29 -63.8125 C 28.53125 -61.113281 28.328125 -58.359375 28.390625 -55.546875 C 28.453125 -52.734375 28.539062 -49.921875 28.65625 -47.109375 C 28.65625 -41.722656 28.300781 -36.332031 27.59375 -30.9375 C 26.894531 -25.3125 25.988281 -19.800781 24.875 -14.40625 C 23.757812 -9.019531 22.734375 -3.570312 21.796875 1.9375 C 21.441406 3.8125 20.328125 5.21875 18.453125 6.15625 C 16.578125 7.09375 14.820312 7.328125 13.1875 6.859375 C 11.195312 6.273438 9.789062 5.160156 8.96875 3.515625 C 8.144531 1.878906 7.910156 0.117188 8.265625 -1.765625 Z M 16.703125 -82.625 C 15.878906 -82.851562 15.054688 -83.226562 14.234375 -83.75 C 13.421875 -84.28125 12.835938 -84.957031 12.484375 -85.78125 C 12.128906 -86.71875 11.832031 -87.535156 11.59375 -88.234375 C 11.363281 -88.941406 11.25 -89.765625 11.25 -90.703125 C 11.25 -91.753906 11.425781 -92.8125 11.78125 -93.875 C 12.25 -95.976562 13.1875 -97.5 14.59375 -98.4375 C 15.0625 -99.144531 15.707031 -99.671875 16.53125 -100.015625 C 17.8125 -100.835938 19.269531 -101.273438 20.90625 -101.328125 C 22.550781 -101.390625 24.019531 -100.953125 25.3125 -100.015625 C 25.894531 -99.546875 26.476562 -99.046875 27.0625 -98.515625 C 27.65625 -97.992188 28.128906 -97.320312 28.484375 -96.5 C 28.710938 -95.914062 28.972656 -95.269531 29.265625 -94.5625 C 29.554688 -93.863281 29.644531 -93.164062 29.53125 -92.46875 C 29.414062 -91.644531 29.296875 -90.878906 29.171875 -90.171875 C 29.054688 -89.472656 28.765625 -88.832031 28.296875 -88.25 C 27.710938 -87.425781 27.242188 -86.835938 26.890625 -86.484375 C 26.546875 -86.128906 25.960938 -85.660156 25.140625 -85.078125 C 24.671875 -84.609375 23.96875 -84.257812 23.03125 -84.03125 C 20.570312 -82.625 18.460938 -82.15625 16.703125 -82.625 Z M 16.703125 -82.625 "/></g></g></g><g fill="#006eff" fill-opacity="1"><g transform="translate(508.212052, 248.624984)"><g><path d="M 29.96875 0 L 13.71875 0 L 13.71875 -135 L 29.96875 -135 Z M 29.96875 0 "/></g></g></g><g fill="#006eff" fill-opacity="1"><g transform="translate(551.890852, 248.624984)"><g><path d="M 51.765625 1.765625 C 38.878906 1.765625 28.390625 -2.46875 20.296875 -10.9375 C 12.210938 -19.40625 8.171875 -30.726562 8.171875 -44.90625 L 8.171875 -47.90625 C 8.171875 -57.332031 9.972656 -65.75 13.578125 -73.15625 C 17.179688 -80.570312 22.21875 -86.375 28.6875 -90.5625 C 35.164062 -94.757812 42.1875 -96.859375 49.75 -96.859375 C 62.113281 -96.859375 71.722656 -92.785156 78.578125 -84.640625 C 85.429688 -76.492188 88.859375 -64.832031 88.859375 -49.65625 L 88.859375 -42.890625 L 24.4375 -42.890625 C 24.664062 -33.515625 27.398438 -25.941406 32.640625 -20.171875 C 37.890625 -14.398438 44.554688 -11.515625 52.640625 -11.515625 C 58.390625 -11.515625 63.253906 -12.6875 67.234375 -15.03125 C 71.222656 -17.375 74.710938 -20.476562 77.703125 -24.34375 L 87.625 -16.609375 C 79.65625 -4.359375 67.703125 1.765625 51.765625 1.765625 Z M 49.75 -83.5 C 43.1875 -83.5 37.675781 -81.109375 33.21875 -76.328125 C 28.769531 -71.554688 26.019531 -64.863281 24.96875 -56.25 L 72.59375 -56.25 L 72.59375 -57.484375 C 72.125 -65.742188 69.894531 -72.144531 65.90625 -76.6875 C 61.925781 -81.226562 56.539062 -83.5 49.75 -83.5 Z M 49.75 -83.5 "/></g></g></g><g fill="#006eff" fill-opacity="1"><g transform="translate(647.24597, 248.624984)"><g><path d="M 8.4375 -48.34375 C 8.4375 -63.164062 11.863281 -74.957031 18.71875 -83.71875 C 25.570312 -92.476562 34.65625 -96.859375 45.96875 -96.859375 C 57.570312 -96.859375 66.625 -92.753906 73.125 -84.546875 L 73.921875 -95.09375 L 88.765625 -95.09375 L 88.765625 -2.28125 C 88.765625 10.019531 85.117188 19.710938 77.828125 26.796875 C 70.535156 33.890625 60.734375 37.4375 48.421875 37.4375 C 41.566406 37.4375 34.859375 35.972656 28.296875 33.046875 C 21.734375 30.117188 16.722656 26.101562 13.265625 21 L 21.703125 11.25 C 28.679688 19.863281 37.207031 24.171875 47.28125 24.171875 C 55.195312 24.171875 61.363281 21.941406 65.78125 17.484375 C 70.207031 13.035156 72.421875 6.769531 72.421875 -1.3125 L 72.421875 -9.5 C 65.921875 -1.988281 57.046875 1.765625 45.796875 1.765625 C 34.660156 1.765625 25.648438 -2.71875 18.765625 -11.6875 C 11.878906 -20.65625 8.4375 -32.875 8.4375 -48.34375 Z M 24.78125 -46.5 C 24.78125 -35.769531 26.976562 -27.34375 31.375 -21.21875 C 35.769531 -15.101562 41.921875 -12.046875 49.828125 -12.046875 C 60.085938 -12.046875 67.617188 -16.703125 72.421875 -26.015625 L 72.421875 -69.4375 C 67.441406 -78.519531 59.972656 -83.0625 50.015625 -83.0625 C 42.097656 -83.0625 35.910156 -79.984375 31.453125 -73.828125 C 27.003906 -67.671875 24.78125 -58.5625 24.78125 -46.5 Z M 24.78125 -46.5 "/></g></g></g><g fill="#006eff" fill-opacity="1"><g transform="translate(748.225723, 248.624984)"><g><path d="M 51.765625 1.765625 C 38.878906 1.765625 28.390625 -2.46875 20.296875 -10.9375 C 12.210938 -19.40625 8.171875 -30.726562 8.171875 -44.90625 L 8.171875 -47.90625 C 8.171875 -57.332031 9.972656 -65.75 13.578125 -73.15625 C 17.179688 -80.570312 22.21875 -86.375 28.6875 -90.5625 C 35.164062 -94.757812 42.1875 -96.859375 49.75 -96.859375 C 62.113281 -96.859375 71.722656 -92.785156 78.578125 -84.640625 C 85.429688 -76.492188 88.859375 -64.832031 88.859375 -49.65625 L 88.859375 -42.890625 L 24.4375 -42.890625 C 24.664062 -33.515625 27.398438 -25.941406 32.640625 -20.171875 C 37.890625 -14.398438 44.554688 -11.515625 52.640625 -11.515625 C 58.390625 -11.515625 63.253906 -12.6875 67.234375 -15.03125 C 71.222656 -17.375 74.710938 -20.476562 77.703125 -24.34375 L 87.625 -16.609375 C 79.65625 -4.359375 67.703125 1.765625 51.765625 1.765625 Z M 49.75 -83.5 C 43.1875 -83.5 37.675781 -81.109375 33.21875 -76.328125 C 28.769531 -71.554688 26.019531 -64.863281 24.96875 -56.25 L 72.59375 -56.25 L 72.59375 -57.484375 C 72.125 -65.742188 69.894531 -72.144531 65.90625 -76.6875 C 61.925781 -81.226562 56.539062 -83.5 49.75 -83.5 Z M 49.75 -83.5 "/></g></g></g><g fill="#ffffff" fill-opacity="1"><g transform="translate(282.785621, 340.97512)"><g><path d="M 13.84375 -16.375 L 22.4375 -32.890625 L 27.359375 -32.890625 L 16.015625 -12.265625 L 16.015625 0 L 11.671875 0 L 11.671875 -12.265625 L 0.34375 -32.890625 L 5.3125 -32.890625 Z M 13.84375 -16.375 "/></g></g></g><g fill="#ffffff" fill-opacity="1"><g transform="translate(310.566516, 340.97512)"><g><path d="M 13.3125 0.453125 C 10 0.453125 7.300781 -0.632812 5.21875 -2.8125 C 3.132812 -4.988281 2.09375 -7.898438 2.09375 -11.546875 L 2.09375 -12.3125 C 2.09375 -14.738281 2.554688 -16.90625 3.484375 -18.8125 C 4.410156 -20.71875 5.707031 -22.207031 7.375 -23.28125 C 9.039062 -24.351562 10.84375 -24.890625 12.78125 -24.890625 C 15.957031 -24.890625 18.425781 -23.84375 20.1875 -21.75 C 21.957031 -19.65625 22.84375 -16.660156 22.84375 -12.765625 L 22.84375 -11.03125 L 6.28125 -11.03125 C 6.34375 -8.613281 7.046875 -6.660156 8.390625 -5.171875 C 9.742188 -3.691406 11.457031 -2.953125 13.53125 -2.953125 C 15.007812 -2.953125 16.257812 -3.253906 17.28125 -3.859375 C 18.300781 -4.460938 19.195312 -5.257812 19.96875 -6.25 L 22.515625 -4.265625 C 20.472656 -1.117188 17.40625 0.453125 13.3125 0.453125 Z M 12.78125 -21.46875 C 11.09375 -21.46875 9.675781 -20.851562 8.53125 -19.625 C 7.394531 -18.394531 6.691406 -16.671875 6.421875 -14.453125 L 18.65625 -14.453125 L 18.65625 -14.78125 C 18.539062 -16.894531 17.96875 -18.535156 16.9375 -19.703125 C 15.914062 -20.878906 14.53125 -21.46875 12.78125 -21.46875 Z M 12.78125 -21.46875 "/></g></g></g><g fill="#ffffff" fill-opacity="1"><g transform="translate(335.072427, 340.97512)"><g><path d="M 17.390625 -6.484375 C 17.390625 -7.609375 16.960938 -8.484375 16.109375 -9.109375 C 15.265625 -9.734375 13.785156 -10.269531 11.671875 -10.71875 C 9.554688 -11.175781 7.875 -11.722656 6.625 -12.359375 C 5.382812 -12.992188 4.46875 -13.742188 3.875 -14.609375 C 3.28125 -15.484375 2.984375 -16.523438 2.984375 -17.734375 C 2.984375 -19.734375 3.828125 -21.425781 5.515625 -22.8125 C 7.210938 -24.195312 9.378906 -24.890625 12.015625 -24.890625 C 14.785156 -24.890625 17.03125 -24.175781 18.75 -22.75 C 20.476562 -21.320312 21.34375 -19.492188 21.34375 -17.265625 L 17.140625 -17.265625 C 17.140625 -18.398438 16.65625 -19.382812 15.6875 -20.21875 C 14.71875 -21.050781 13.492188 -21.46875 12.015625 -21.46875 C 10.492188 -21.46875 9.300781 -21.132812 8.4375 -20.46875 C 7.582031 -19.800781 7.15625 -18.9375 7.15625 -17.875 C 7.15625 -16.863281 7.554688 -16.097656 8.359375 -15.578125 C 9.160156 -15.066406 10.601562 -14.578125 12.6875 -14.109375 C 14.769531 -13.648438 16.457031 -13.09375 17.75 -12.4375 C 19.050781 -11.789062 20.015625 -11.015625 20.640625 -10.109375 C 21.265625 -9.203125 21.578125 -8.09375 21.578125 -6.78125 C 21.578125 -4.59375 20.703125 -2.835938 18.953125 -1.515625 C 17.203125 -0.203125 14.9375 0.453125 12.15625 0.453125 C 10.195312 0.453125 8.460938 0.109375 6.953125 -0.578125 C 5.453125 -1.273438 4.273438 -2.242188 3.421875 -3.484375 C 2.566406 -4.734375 2.140625 -6.078125 2.140625 -7.515625 L 6.328125 -7.515625 C 6.398438 -6.117188 6.957031 -5.007812 8 -4.1875 C 9.050781 -3.363281 10.4375 -2.953125 12.15625 -2.953125 C 13.738281 -2.953125 15.003906 -3.269531 15.953125 -3.90625 C 16.910156 -4.550781 17.390625 -5.410156 17.390625 -6.484375 Z M 17.390625 -6.484375 "/></g></g></g><g fill="#ffffff" fill-opacity="1"><g transform="translate(358.923342, 340.97512)"><g><path d="M 3.03125 6.546875 L 0.65625 4.921875 C 2.070312 2.953125 2.8125 0.921875 2.875 -1.171875 L 2.875 -4.953125 L 6.953125 -4.953125 L 6.953125 -1.671875 C 6.953125 -0.148438 6.578125 1.367188 5.828125 2.890625 C 5.085938 4.410156 4.15625 5.628906 3.03125 6.546875 Z M 3.03125 6.546875 "/></g></g></g><g fill="#ffffff" fill-opacity="1"><g transform="translate(368.002952, 340.97512)"><g/></g></g><g fill="#ffffff" fill-opacity="1"><g transform="translate(379.454101, 340.97512)"><g><path d="M 8.828125 -30.359375 L 8.828125 -24.4375 L 13.390625 -24.4375 L 13.390625 -21.21875 L 8.828125 -21.21875 L 8.828125 -6.046875 C 8.828125 -5.066406 9.03125 -4.332031 9.4375 -3.84375 C 9.84375 -3.363281 10.535156 -3.125 11.515625 -3.125 C 12.003906 -3.125 12.671875 -3.210938 13.515625 -3.390625 L 13.515625 0 C 12.410156 0.300781 11.335938 0.453125 10.296875 0.453125 C 8.429688 0.453125 7.023438 -0.109375 6.078125 -1.234375 C 5.128906 -2.367188 4.65625 -3.972656 4.65625 -6.046875 L 4.65625 -21.21875 L 0.203125 -21.21875 L 0.203125 -24.4375 L 4.65625 -24.4375 L 4.65625 -30.359375 Z M 8.828125 -30.359375 "/></g></g></g><g fill="#ffffff" fill-opacity="1"><g transform="translate(394.564198, 340.97512)"><g><path d="M 7.34375 -21.484375 C 9.195312 -23.753906 11.609375 -24.890625 14.578125 -24.890625 C 19.734375 -24.890625 22.335938 -21.976562 22.390625 -16.15625 L 22.390625 0 L 18.203125 0 L 18.203125 -16.171875 C 18.191406 -17.929688 17.789062 -19.234375 17 -20.078125 C 16.207031 -20.921875 14.976562 -21.34375 13.3125 -21.34375 C 11.945312 -21.34375 10.753906 -20.976562 9.734375 -20.25 C 8.710938 -19.53125 7.914062 -18.585938 7.34375 -17.421875 L 7.34375 0 L 3.15625 0 L 3.15625 -34.703125 L 7.34375 -34.703125 Z M 7.34375 -21.484375 "/></g></g></g><g fill="#ffffff" fill-opacity="1"><g transform="translate(420.041312, 340.97512)"><g><path d="M 18.25 0 C 18.007812 -0.476562 17.816406 -1.335938 17.671875 -2.578125 C 15.722656 -0.554688 13.398438 0.453125 10.703125 0.453125 C 8.296875 0.453125 6.320312 -0.226562 4.78125 -1.59375 C 3.238281 -2.957031 2.46875 -4.6875 2.46875 -6.78125 C 2.46875 -9.320312 3.429688 -11.296875 5.359375 -12.703125 C 7.296875 -14.109375 10.019531 -14.8125 13.53125 -14.8125 L 17.59375 -14.8125 L 17.59375 -16.734375 C 17.59375 -18.203125 17.15625 -19.367188 16.28125 -20.234375 C 15.414062 -21.097656 14.128906 -21.53125 12.421875 -21.53125 C 10.929688 -21.53125 9.679688 -21.148438 8.671875 -20.390625 C 7.660156 -19.640625 7.15625 -18.734375 7.15625 -17.671875 L 2.953125 -17.671875 C 2.953125 -18.890625 3.382812 -20.066406 4.25 -21.203125 C 5.125 -22.335938 6.300781 -23.234375 7.78125 -23.890625 C 9.257812 -24.554688 10.890625 -24.890625 12.671875 -24.890625 C 15.484375 -24.890625 17.6875 -24.1875 19.28125 -22.78125 C 20.882812 -21.375 21.71875 -19.4375 21.78125 -16.96875 L 21.78125 -5.71875 C 21.78125 -3.46875 22.066406 -1.679688 22.640625 -0.359375 L 22.640625 0 Z M 11.3125 -3.1875 C 12.625 -3.1875 13.867188 -3.523438 15.046875 -4.203125 C 16.222656 -4.878906 17.070312 -5.757812 17.59375 -6.84375 L 17.59375 -11.859375 L 14.328125 -11.859375 C 9.203125 -11.859375 6.640625 -10.359375 6.640625 -7.359375 C 6.640625 -6.054688 7.078125 -5.035156 7.953125 -4.296875 C 8.828125 -3.554688 9.945312 -3.1875 11.3125 -3.1875 Z M 11.3125 -3.1875 "/></g></g></g><g fill="#ffffff" fill-opacity="1"><g transform="translate(445.20222, 340.97512)"><g><path d="M 8.828125 -30.359375 L 8.828125 -24.4375 L 13.390625 -24.4375 L 13.390625 -21.21875 L 8.828125 -21.21875 L 8.828125 -6.046875 C 8.828125 -5.066406 9.03125 -4.332031 9.4375 -3.84375 C 9.84375 -3.363281 10.535156 -3.125 11.515625 -3.125 C 12.003906 -3.125 12.671875 -3.210938 13.515625 -3.390625 L 13.515625 0 C 12.410156 0.300781 11.335938 0.453125 10.296875 0.453125 C 8.429688 0.453125 7.023438 -0.109375 6.078125 -1.234375 C 5.128906 -2.367188 4.65625 -3.972656 4.65625 -6.046875 L 4.65625 -21.21875 L 0.203125 -21.21875 L 0.203125 -24.4375 L 4.65625 -24.4375 L 4.65625 -30.359375 Z M 8.828125 -30.359375 "/></g></g></g><g fill="#ffffff" fill-opacity="1"><g transform="translate(460.312316, 340.97512)"><g><path d="M 5.71875 -32.1875 L 5.234375 -23.875 L 2.328125 -23.875 L 2.34375 -34.703125 L 5.71875 -34.703125 Z M 5.71875 -32.1875 "/></g></g></g><g fill="#ffffff" fill-opacity="1"><g transform="translate(468.375552, 340.97512)"><g><path d="M 17.390625 -6.484375 C 17.390625 -7.609375 16.960938 -8.484375 16.109375 -9.109375 C 15.265625 -9.734375 13.785156 -10.269531 11.671875 -10.71875 C 9.554688 -11.175781 7.875 -11.722656 6.625 -12.359375 C 5.382812 -12.992188 4.46875 -13.742188 3.875 -14.609375 C 3.28125 -15.484375 2.984375 -16.523438 2.984375 -17.734375 C 2.984375 -19.734375 3.828125 -21.425781 5.515625 -22.8125 C 7.210938 -24.195312 9.378906 -24.890625 12.015625 -24.890625 C 14.785156 -24.890625 17.03125 -24.175781 18.75 -22.75 C 20.476562 -21.320312 21.34375 -19.492188 21.34375 -17.265625 L 17.140625 -17.265625 C 17.140625 -18.398438 16.65625 -19.382812 15.6875 -20.21875 C 14.71875 -21.050781 13.492188 -21.46875 12.015625 -21.46875 C 10.492188 -21.46875 9.300781 -21.132812 8.4375 -20.46875 C 7.582031 -19.800781 7.15625 -18.9375 7.15625 -17.875 C 7.15625 -16.863281 7.554688 -16.097656 8.359375 -15.578125 C 9.160156 -15.066406 10.601562 -14.578125 12.6875 -14.109375 C 14.769531 -13.648438 16.457031 -13.09375 17.75 -12.4375 C 19.050781 -11.789062 20.015625 -11.015625 20.640625 -10.109375 C 21.265625 -9.203125 21.578125 -8.09375 21.578125 -6.78125 C 21.578125 -4.59375 20.703125 -2.835938 18.953125 -1.515625 C 17.203125 -0.203125 14.9375 0.453125 12.15625 0.453125 C 10.195312 0.453125 8.460938 0.109375 6.953125 -0.578125 C 5.453125 -1.273438 4.273438 -2.242188 3.421875 -3.484375 C 2.566406 -4.734375 2.140625 -6.078125 2.140625 -7.515625 L 6.328125 -7.515625 C 6.398438 -6.117188 6.957031 -5.007812 8 -4.1875 C 9.050781 -3.363281 10.4375 -2.953125 12.15625 -2.953125 C 13.738281 -2.953125 15.003906 -3.269531 15.953125 -3.90625 C 16.910156 -4.550781 17.390625 -5.410156 17.390625 -6.484375 Z M 17.390625 -6.484375 "/></g></g></g><g fill="#ffffff" fill-opacity="1"><g transform="translate(492.226467, 340.97512)"><g/></g></g><g fill="#006eff" fill-opacity="1"><g transform="translate(503.65548, 340.97512)"><g><path d="M 14.984375 -20.6875 C 14.347656 -20.789062 13.660156 -20.84375 12.921875 -20.84375 C 10.179688 -20.84375 8.320312 -19.675781 7.34375 -17.34375 L 7.34375 0 L 3.15625 0 L 3.15625 -24.4375 L 7.234375 -24.4375 L 7.296875 -21.625 C 8.671875 -23.800781 10.613281 -24.890625 13.125 -24.890625 C 13.9375 -24.890625 14.554688 -24.785156 14.984375 -24.578125 Z M 14.984375 -20.6875 "/></g></g></g><g fill="#006eff" fill-opacity="1"><g transform="translate(519.307643, 340.97512)"><g><path d="M 13.3125 0.453125 C 10 0.453125 7.300781 -0.632812 5.21875 -2.8125 C 3.132812 -4.988281 2.09375 -7.898438 2.09375 -11.546875 L 2.09375 -12.3125 C 2.09375 -14.738281 2.554688 -16.90625 3.484375 -18.8125 C 4.410156 -20.71875 5.707031 -22.207031 7.375 -23.28125 C 9.039062 -24.351562 10.84375 -24.890625 12.78125 -24.890625 C 15.957031 -24.890625 18.425781 -23.84375 20.1875 -21.75 C 21.957031 -19.65625 22.84375 -16.660156 22.84375 -12.765625 L 22.84375 -11.03125 L 6.28125 -11.03125 C 6.34375 -8.613281 7.046875 -6.660156 8.390625 -5.171875 C 9.742188 -3.691406 11.457031 -2.953125 13.53125 -2.953125 C 15.007812 -2.953125 16.257812 -3.253906 17.28125 -3.859375 C 18.300781 -4.460938 19.195312 -5.257812 19.96875 -6.25 L 22.515625 -4.265625 C 20.472656 -1.117188 17.40625 0.453125 13.3125 0.453125 Z M 12.78125 -21.46875 C 11.09375 -21.46875 9.675781 -20.851562 8.53125 -19.625 C 7.394531 -18.394531 6.691406 -16.671875 6.421875 -14.453125 L 18.65625 -14.453125 L 18.65625 -14.78125 C 18.539062 -16.894531 17.96875 -18.535156 16.9375 -19.703125 C 15.914062 -20.878906 14.53125 -21.46875 12.78125 -21.46875 Z M 12.78125 -21.46875 "/></g></g></g><g fill="#006eff" fill-opacity="1"><g transform="translate(543.813555, 340.97512)"><g><path d="M 18.25 0 C 18.007812 -0.476562 17.816406 -1.335938 17.671875 -2.578125 C 15.722656 -0.554688 13.398438 0.453125 10.703125 0.453125 C 8.296875 0.453125 6.320312 -0.226562 4.78125 -1.59375 C 3.238281 -2.957031 2.46875 -4.6875 2.46875 -6.78125 C 2.46875 -9.320312 3.429688 -11.296875 5.359375 -12.703125 C 7.296875 -14.109375 10.019531 -14.8125 13.53125 -14.8125 L 17.59375 -14.8125 L 17.59375 -16.734375 C 17.59375 -18.203125 17.15625 -19.367188 16.28125 -20.234375 C 15.414062 -21.097656 14.128906 -21.53125 12.421875 -21.53125 C 10.929688 -21.53125 9.679688 -21.148438 8.671875 -20.390625 C 7.660156 -19.640625 7.15625 -18.734375 7.15625 -17.671875 L 2.953125 -17.671875 C 2.953125 -18.890625 3.382812 -20.066406 4.25 -21.203125 C 5.125 -22.335938 6.300781 -23.234375 7.78125 -23.890625 C 9.257812 -24.554688 10.890625 -24.890625 12.671875 -24.890625 C 15.484375 -24.890625 17.6875 -24.1875 19.28125 -22.78125 C 20.882812 -21.375 21.71875 -19.4375 21.78125 -16.96875 L 21.78125 -5.71875 C 21.78125 -3.46875 22.066406 -1.679688 22.640625 -0.359375 L 22.640625 0 Z M 11.3125 -3.1875 C 12.625 -3.1875 13.867188 -3.523438 15.046875 -4.203125 C 16.222656 -4.878906 17.070312 -5.757812 17.59375 -6.84375 L 17.59375 -11.859375 L 14.328125 -11.859375 C 9.203125 -11.859375 6.640625 -10.359375 6.640625 -7.359375 C 6.640625 -6.054688 7.078125 -5.035156 7.953125 -4.296875 C 8.828125 -3.554688 9.945312 -3.1875 11.3125 -3.1875 Z M 11.3125 -3.1875 "/></g></g></g><g fill="#006eff" fill-opacity="1"><g transform="translate(568.974463, 340.97512)"><g><path d="M 7.703125 0 L 3.53125 0 L 3.53125 -34.703125 L 7.703125 -34.703125 Z M 7.703125 0 "/></g></g></g><g fill="#006eff" fill-opacity="1"><g transform="translate(580.199751, 340.97512)"><g><path d="M 7.703125 0 L 3.53125 0 L 3.53125 -34.703125 L 7.703125 -34.703125 Z M 7.703125 0 "/></g></g></g><g fill="#006eff" fill-opacity="1"><g transform="translate(591.42504, 340.97512)"><g><path d="M 11.15625 -6.125 L 16.859375 -24.4375 L 21.328125 -24.4375 L 11.5 3.765625 C 9.976562 7.835938 7.5625 9.875 4.25 9.875 L 3.453125 9.796875 L 1.890625 9.515625 L 1.890625 6.125 L 3.03125 6.21875 C 4.445312 6.21875 5.546875 5.929688 6.328125 5.359375 C 7.117188 4.785156 7.773438 3.738281 8.296875 2.21875 L 9.21875 -0.265625 L 0.5 -24.4375 L 5.0625 -24.4375 Z M 11.15625 -6.125 "/></g></g></g><g fill="#ffffff" fill-opacity="1"><g transform="translate(613.304107, 340.97512)"><g/></g></g><g fill="#ffffff" fill-opacity="1"><g transform="translate(624.755256, 340.97512)"><g><path d="M 7.09375 -24.4375 L 7.203125 -21.734375 C 8.992188 -23.835938 11.410156 -24.890625 14.453125 -24.890625 C 17.878906 -24.890625 20.207031 -23.582031 21.4375 -20.96875 C 22.25 -22.132812 23.304688 -23.078125 24.609375 -23.796875 C 25.910156 -24.523438 27.453125 -24.890625 29.234375 -24.890625 C 34.597656 -24.890625 37.320312 -22.050781 37.40625 -16.375 L 37.40625 0 L 33.234375 0 L 33.234375 -16.125 C 33.234375 -17.875 32.832031 -19.179688 32.03125 -20.046875 C 31.238281 -20.910156 29.898438 -21.34375 28.015625 -21.34375 C 26.460938 -21.34375 25.171875 -20.878906 24.140625 -19.953125 C 23.117188 -19.023438 22.523438 -17.78125 22.359375 -16.21875 L 22.359375 0 L 18.15625 0 L 18.15625 -16.015625 C 18.15625 -19.566406 16.414062 -21.34375 12.9375 -21.34375 C 10.195312 -21.34375 8.320312 -20.175781 7.3125 -17.84375 L 7.3125 0 L 3.140625 0 L 3.140625 -24.4375 Z M 7.09375 -24.4375 "/></g></g></g><g fill="#ffffff" fill-opacity="1"><g transform="translate(665.297294, 340.97512)"><g><path d="M 11.15625 -6.125 L 16.859375 -24.4375 L 21.328125 -24.4375 L 11.5 3.765625 C 9.976562 7.835938 7.5625 9.875 4.25 9.875 L 3.453125 9.796875 L 1.890625 9.515625 L 1.890625 6.125 L 3.03125 6.21875 C 4.445312 6.21875 5.546875 5.929688 6.328125 5.359375 C 7.117188 4.785156 7.773438 3.738281 8.296875 2.21875 L 9.21875 -0.265625 L 0.5 -24.4375 L 5.0625 -24.4375 Z M 11.15625 -6.125 "/></g></g></g><g fill="#ffffff" fill-opacity="1"><g transform="translate(687.183219, 340.97512)"><g/></g></g><g fill="#ffffff" fill-opacity="1"><g transform="translate(698.634369, 340.97512)"><g><path d="M 7.109375 -24.4375 L 7.25 -21.375 C 9.113281 -23.71875 11.554688 -24.890625 14.578125 -24.890625 C 19.734375 -24.890625 22.335938 -21.976562 22.390625 -16.15625 L 22.390625 0 L 18.203125 0 L 18.203125 -16.171875 C 18.191406 -17.929688 17.789062 -19.234375 17 -20.078125 C 16.207031 -20.921875 14.976562 -21.34375 13.3125 -21.34375 C 11.945312 -21.34375 10.753906 -20.976562 9.734375 -20.25 C 8.710938 -19.53125 7.914062 -18.585938 7.34375 -17.421875 L 7.34375 0 L 3.15625 0 L 3.15625 -24.4375 Z M 7.109375 -24.4375 "/></g></g></g><g fill="#ffffff" fill-opacity="1"><g transform="translate(724.156655, 340.97512)"><g><path d="M 18.25 0 C 18.007812 -0.476562 17.816406 -1.335938 17.671875 -2.578125 C 15.722656 -0.554688 13.398438 0.453125 10.703125 0.453125 C 8.296875 0.453125 6.320312 -0.226562 4.78125 -1.59375 C 3.238281 -2.957031 2.46875 -4.6875 2.46875 -6.78125 C 2.46875 -9.320312 3.429688 -11.296875 5.359375 -12.703125 C 7.296875 -14.109375 10.019531 -14.8125 13.53125 -14.8125 L 17.59375 -14.8125 L 17.59375 -16.734375 C 17.59375 -18.203125 17.15625 -19.367188 16.28125 -20.234375 C 15.414062 -21.097656 14.128906 -21.53125 12.421875 -21.53125 C 10.929688 -21.53125 9.679688 -21.148438 8.671875 -20.390625 C 7.660156 -19.640625 7.15625 -18.734375 7.15625 -17.671875 L 2.953125 -17.671875 C 2.953125 -18.890625 3.382812 -20.066406 4.25 -21.203125 C 5.125 -22.335938 6.300781 -23.234375 7.78125 -23.890625 C 9.257812 -24.554688 10.890625 -24.890625 12.671875 -24.890625 C 15.484375 -24.890625 17.6875 -24.1875 19.28125 -22.78125 C 20.882812 -21.375 21.71875 -19.4375 21.78125 -16.96875 L 21.78125 -5.71875 C 21.78125 -3.46875 22.066406 -1.679688 22.640625 -0.359375 L 22.640625 0 Z M 11.3125 -3.1875 C 12.625 -3.1875 13.867188 -3.523438 15.046875 -4.203125 C 16.222656 -4.878906 17.070312 -5.757812 17.59375 -6.84375 L 17.59375 -11.859375 L 14.328125 -11.859375 C 9.203125 -11.859375 6.640625 -10.359375 6.640625 -7.359375 C 6.640625 -6.054688 7.078125 -5.035156 7.953125 -4.296875 C 8.828125 -3.554688 9.945312 -3.1875 11.3125 -3.1875 Z M 11.3125 -3.1875 "/></g></g></g><g fill="#ffffff" fill-opacity="1"><g transform="translate(749.317563, 340.97512)"><g><path d="M 7.09375 -24.4375 L 7.203125 -21.734375 C 8.992188 -23.835938 11.410156 -24.890625 14.453125 -24.890625 C 17.878906 -24.890625 20.207031 -23.582031 21.4375 -20.96875 C 22.25 -22.132812 23.304688 -23.078125 24.609375 -23.796875 C 25.910156 -24.523438 27.453125 -24.890625 29.234375 -24.890625 C 34.597656 -24.890625 37.320312 -22.050781 37.40625 -16.375 L 37.40625 0 L 33.234375 0 L 33.234375 -16.125 C 33.234375 -17.875 32.832031 -19.179688 32.03125 -20.046875 C 31.238281 -20.910156 29.898438 -21.34375 28.015625 -21.34375 C 26.460938 -21.34375 25.171875 -20.878906 24.140625 -19.953125 C 23.117188 -19.023438 22.523438 -17.78125 22.359375 -16.21875 L 22.359375 0 L 18.15625 0 L 18.15625 -16.015625 C 18.15625 -19.566406 16.414062 -21.34375 12.9375 -21.34375 C 10.195312 -21.34375 8.320312 -20.175781 7.3125 -17.84375 L 7.3125 0 L 3.140625 0 L 3.140625 -24.4375 Z M 7.09375 -24.4375 "/></g></g></g><g fill="#ffffff" fill-opacity="1"><g transform="translate(789.859601, 340.97512)"><g><path d="M 13.3125 0.453125 C 10 0.453125 7.300781 -0.632812 5.21875 -2.8125 C 3.132812 -4.988281 2.09375 -7.898438 2.09375 -11.546875 L 2.09375 -12.3125 C 2.09375 -14.738281 2.554688 -16.90625 3.484375 -18.8125 C 4.410156 -20.71875 5.707031 -22.207031 7.375 -23.28125 C 9.039062 -24.351562 10.84375 -24.890625 12.78125 -24.890625 C 15.957031 -24.890625 18.425781 -23.84375 20.1875 -21.75 C 21.957031 -19.65625 22.84375 -16.660156 22.84375 -12.765625 L 22.84375 -11.03125 L 6.28125 -11.03125 C 6.34375 -8.613281 7.046875 -6.660156 8.390625 -5.171875 C 9.742188 -3.691406 11.457031 -2.953125 13.53125 -2.953125 C 15.007812 -2.953125 16.257812 -3.253906 17.28125 -3.859375 C 18.300781 -4.460938 19.195312 -5.257812 19.96875 -6.25 L 22.515625 -4.265625 C 20.472656 -1.117188 17.40625 0.453125 13.3125 0.453125 Z M 12.78125 -21.46875 C 11.09375 -21.46875 9.675781 -20.851562 8.53125 -19.625 C 7.394531 -18.394531 6.691406 -16.671875 6.421875 -14.453125 L 18.65625 -14.453125 L 18.65625 -14.78125 C 18.539062 -16.894531 17.96875 -18.535156 16.9375 -19.703125 C 15.914062 -20.878906 14.53125 -21.46875 12.78125 -21.46875 Z M 12.78125 -21.46875 "/></g></g></g></svg>
